<svg xmlns="http://www.w3.org/2000/svg" width="24" height="24" fill="none" viewBox="0 0 24 24"><path fill="currentColor" fill-rule="evenodd" d="M17.625 6H4.5C3.119 6 2 7.045 2 8.333v7.584c0 1.108.828 2.036 1.938 2.274C4.194 19.227 5.188 20 6.374 20H19.5c1.381 0 2.5-1.045 2.5-2.333v-7.584c0-1.108-.828-2.036-1.937-2.274C19.806 6.773 18.813 6 17.625 6m2.5 3.073v6.844c0 1.288-1.119 2.333-2.5 2.333H5.291c.218.349.621.583 1.084.583H19.5c.69 0 1.25-.522 1.25-1.166v-7.584c0-.432-.25-.808-.625-1.01M3.25 15.107v.81c0 .644.56 1.166 1.25 1.166h.869c-.24-.98-1.069-1.753-2.119-1.976m15.625 0c-1.05.223-1.878.995-2.119 1.976h.869c.69 0 1.25-.522 1.25-1.166zM11.063 7.75c2.587 0 4.687 1.96 4.687 4.375s-2.1 4.375-4.687 4.375-4.688-1.96-4.688-4.375 2.1-4.375 4.688-4.375m-.626 1.81c-.721.191-1.25.81-1.25 1.544 0 .886.77 1.604 1.72 1.604h.312c.26 0 .469.196.469.438 0 .241-.21.437-.47.437h-.393a.51.51 0 0 1-.453-.26c-.153-.289-.531-.405-.838-.261-.309.144-.434.494-.28.782.237.446.677.759 1.184.866v.04c0 .322.28.583.624.583s.626-.261.626-.583v-.06c.721-.191 1.25-.81 1.25-1.544 0-.886-.77-1.604-1.72-1.604h-.312c-.26 0-.469-.196-.469-.438 0-.241.21-.437.47-.437h.393c.194 0 .369.1.453.26.153.289.531.406.838.261.309-.144.434-.494.28-.782a1.74 1.74 0 0 0-1.184-.866V9.5c0-.322-.28-.583-.624-.583s-.626.261-.626.583zm6.32-2.393c.24.98 1.068 1.753 2.118 1.976v-.81c0-.644-.56-1.166-1.25-1.166zm-11.388 0H4.5c-.69 0-1.25.522-1.25 1.166v.81c1.05-.223 1.878-.995 2.119-1.976" clip-rule="evenodd"/></svg>