<svg xmlns="http://www.w3.org/2000/svg" width="24" height="24" fill="currentColor" viewBox="0 -960 960 960"><path d="M247.85-260.62q51-36.69 108.23-58.03Q413.31-340 480-340t123.92 21.35q57.23 21.34 108.23 58.03 39.62-41 63.73-96.84Q800-413.31 800-480q0-133-93.5-226.5T480-800t-226.5 93.5T160-480q0 66.69 24.12 122.54 24.11 55.84 63.73 96.84M480.02-460q-50.56 0-85.29-34.71T360-579.98t34.71-85.29T479.98-700t85.29 34.71T600-580.02t-34.71 85.29T480.02-460M480-120q-75.31 0-141-28.04t-114.31-76.65Q176.08-273.31 148.04-339T120-480t28.04-141 76.65-114.31q48.62-48.61 114.31-76.65T480-840t141 28.04 114.31 76.65q48.61 48.62 76.65 114.31T840-480t-28.04 141-76.65 114.31Q686.69-176.08 621-148.04T480-120m0-40q55.31 0 108.85-19.35 53.53-19.34 92.53-52.96-39-31.31-90.23-49.5T480-300t-111.54 17.81q-51.61 17.81-89.84 49.88 39 33.62 92.53 52.96Q424.69-160 480-160m0-340q33.69 0 56.85-23.15Q560-546.31 560-580t-23.15-56.85Q513.69-660 480-660t-56.85 23.15Q400-613.69 400-580t23.15 56.85Q446.31-500 480-500m0 270"/></svg>