<svg width="9" height="10" viewBox="0 0 9 10" fill="none" xmlns="http://www.w3.org/2000/svg">
<path d="M7.91897 8.47713L8.22311 8.11943C8.62616 7.70689 8.62616 7.03943 8.22311 6.62689C8.21275 6.61632 7.40862 5.98514 7.40862 5.98514C7.00771 5.59578 6.37765 5.59668 5.97782 5.98718L5.34079 6.53482C4.29057 6.09136 3.45681 5.23923 3.02397 4.16695L3.55873 3.51905C3.94177 3.11116 3.9428 2.46808 3.56107 2.05891C3.56107 2.05891 2.94175 1.2395 2.93139 1.22893C2.53462 0.82148 1.89073 0.814494 1.48555 1.21324L1.1012 1.55424C-1.1695 4.24197 3.72016 9.1922 6.44138 9.1032C6.99653 9.10649 7.52942 8.8807 7.91897 8.47713V8.47713Z" fill="currentColor"/>
</svg>
