<svg xmlns="http://www.w3.org/2000/svg" width="13" height="12" fill="none" viewBox="0 0 13 12"><path fill="currentColor" fill-rule="evenodd" d="M10.949 1H6.577a.38.38 0 0 0-.267.11L1.648 5.773a.455.455 0 0 0 0 .644l4.45 4.45a.455.455 0 0 0 .644 0l4.662-4.661a.38.38 0 0 0 .11-.267V1.566A.566.566 0 0 0 10.95 1M6.61 5.528c.728 0 1.32.508 1.32 1.132 0 .512-.398.945-.943 1.085v.425h-.754v-.425c-.545-.14-.944-.573-.944-1.085h.755c0 .201.264.378.566.378s.566-.177.566-.378c0-.2-.264-.377-.566-.377-.728 0-1.32-.508-1.32-1.132 0-.512.398-.945.943-1.084v-.425h.754v.425c.545.139.944.572.944 1.084h-.755c0-.201-.264-.377-.566-.377s-.566.176-.566.377c0 .2.264.377.566.377m2.642-2.83a.566.566 0 1 0 1.132 0 .566.566 0 0 0-1.132 0" clip-rule="evenodd"/></svg>