<svg xmlns="http://www.w3.org/2000/svg" width="12" height="30" fill="none" viewBox="0 0 12 30"><path fill="currentColor" d="M8.474 6.084H3.526C1.58 6.084 0 7.634 0 9.548v4.964c0 1.273.702 2.392 1.747 2.989.187.107.42-.021.42-.23V9.847a.22.22 0 0 1 .222-.219c.124 0 .223.094.223.219v18.52c0 .853.67 1.605 1.546 1.633.896.021 1.64-.683 1.64-1.563v-9.833c0-.114.096-.218.223-.218s.223.1.223.218v9.763c0 .86.67 1.605 1.545 1.633.907.028 1.645-.683 1.645-1.563V9.846c0-.122.095-.219.222-.219.128 0 .223.094.223.219v7.388c0 .218.24.346.427.236A3.45 3.45 0 0 0 12 14.509V9.544c-.004-1.914-1.578-3.46-3.526-3.46m-2.456-.523c1.563 0 2.83-1.245 2.83-2.78C8.848 1.245 7.581 0 6.018 0s-2.83 1.245-2.83 2.78c0 1.536 1.266 2.781 2.83 2.781"/></svg>