<svg width="16" height="17" viewBox="0 0 16 17" fill="none" xmlns="http://www.w3.org/2000/svg">
<path d="M1.7534 7.95117L0.00380068 15.3493C-0.0211935 15.4992 0.0787833 15.6492 0.253743 15.6492H1.45347L2.90313 8.02615C2.30327 8.02615 1.95335 8.00116 1.7534 7.95117V7.95117Z" fill="currentColor"/>
<path d="M3.42802 8.02734L2.6532 12.1013H7.75202V8.02734C7.42709 8.02734 7.12716 8.02734 6.85223 8.02734C5.80247 8.02734 4.97766 8.02734 4.32781 8.02734C3.97789 8.02734 3.67796 8.02734 3.42802 8.02734V8.02734Z" fill="currentColor"/>
<path d="M13.3757 12.1013L12.5759 8.02734C10.8763 8.02734 9.45161 8.02734 8.25189 8.02734V12.1013H13.3757Z" fill="currentColor"/>
<path d="M2.5532 12.5996L1.97833 15.6488H14.0755L13.4757 12.5996L2.5532 12.5996Z" fill="currentColor"/>
<path d="M15.9751 15.2997L14.2505 7.97656C14.2005 8.00156 14.1505 8.00156 14.1005 8.00156H13.1008L14.6004 15.6246H15.7502C15.9501 15.6496 16.0501 15.4496 15.9751 15.2997Z" fill="currentColor"/>
<path d="M4.05284 2.10315H3.32801C3.20304 2.10315 3.10306 2.17813 3.07807 2.3031L2.67816 4.05264H3.67793C3.67793 4.02765 4.07784 1.97818 4.05284 2.10315Z" fill="currentColor"/>
<path d="M7.75203 3.9035H4.20285L4.17786 4.05346H7.75203V3.9035Z" fill="currentColor"/>
<path d="M11.4511 2.10352H4.55274L4.3028 3.40318H11.7011L11.4511 2.10352Z" fill="currentColor"/>
<path d="M8.25189 4.05346H11.8261L11.8011 3.9035H8.25189V4.05346Z" fill="currentColor"/>
<path d="M13.3257 4.05301L12.9258 2.30346C12.9008 2.1785 12.8009 2.10352 12.6759 2.10352H11.951L12.326 4.02802H13.3257V4.05301Z" fill="currentColor"/>
<path fill-rule="evenodd" clip-rule="evenodd" d="M14.0256 7.52657C14.1755 7.52657 14.2755 7.4266 14.2755 7.27664V7.22665L14.2505 4.77728C14.2505 4.65231 14.1255 4.52734 14.0006 4.52734H2.00335C1.87838 4.52734 1.75341 4.62732 1.75341 4.77728L1.72842 7.25164C1.72842 7.27107 1.72654 7.28922 1.72478 7.30617C1.72189 7.33414 1.71933 7.35886 1.7261 7.38069C1.77755 7.5466 2.36796 7.54535 7.44615 7.53462C9.11073 7.53111 11.2575 7.52657 14.0256 7.52657ZM13.7756 7.0267H12.8508V6.27689H13.7756V7.0267ZM13.7506 5.77702V5.05221H12.8258V5.77702H13.7506ZM12.351 7.0267H11.3262V6.27689H12.351V7.0267ZM12.326 5.77702V5.05221H11.3012V5.77702H12.326ZM10.8263 7.0267H9.80155V6.27689H10.8263V7.0267ZM10.8013 5.77702V5.05221H9.77655V5.77702H10.8013ZM8.25191 5.05221H9.27667V5.77702H8.25191V5.05221ZM9.27667 6.27689H8.25191V7.0267H9.27667V6.27689ZM6.72726 5.05221H7.75202V5.77702H6.72726V5.05221ZM7.75202 6.27689H6.72726V7.0267H7.75202V6.27689ZM5.20261 5.05221H6.22738V5.77702H5.20261V5.05221ZM6.22738 6.27689H5.20261V7.0267H6.22738V6.27689ZM3.67797 5.05221H4.70273V5.77702H3.67797V5.05221ZM4.70273 6.27689H3.67797V7.0267H4.70273V6.27689ZM2.2533 5.05221H3.17808V5.77702H2.2533V5.05221ZM3.17808 6.27689H2.2533V7.0267H3.17808V6.27689Z" fill="currentColor"/>
</svg>
