<svg xmlns="http://www.w3.org/2000/svg" width="16" height="16" fill="none" viewBox="0 0 16 16"><path fill="currentColor" fill-rule="evenodd" d="M12.667 0H3.333A3.337 3.337 0 0 0 0 3.333v9.334A3.337 3.337 0 0 0 3.333 16h7.01c.095 0 .188-.007.281-.013l.043-.003v-3.317c0-1.103.897-2 2-2h3.317l.003-.043a4 4 0 0 0 .013-.28v-7.01A3.337 3.337 0 0 0 12.667 0m-2 8.667h-2v2a.666.666 0 1 1-1.334 0v-2h-2a.666.666 0 1 1 0-1.334h2v-2a.666.666 0 1 1 1.334 0v2h2a.666.666 0 1 1 0 1.334M15.693 12h-3.026c-.368 0-.667.3-.667.667v3.027a4.7 4.7 0 0 0 1.643-1.06l.99-.99A4.7 4.7 0 0 0 15.693 12" clip-rule="evenodd"/></svg>