<svg xmlns="http://www.w3.org/2000/svg" width="16" height="17" fill="none" viewBox="0 0 16 17"><path fill="currentColor" d="M8 6.805a1 1 0 0 0-.665.248.8.8 0 0 0-.276.597v1.69a.8.8 0 0 0 .276.597 1 1 0 0 0 .665.248c.25 0 .489-.09.665-.248a.8.8 0 0 0 .276-.597V7.65a.8.8 0 0 0-.276-.597A1 1 0 0 0 8 6.805m7.962-.27a6.74 6.74 0 0 0-1.395-3.448c-.79-1.021-1.86-1.84-3.109-2.38a8.8 8.8 0 0 0-4.012-.69 8.6 8.6 0 0 0-3.87 1.178 7.6 7.6 0 0 0-2.43 2.292A6.74 6.74 0 0 0 .038 6.493a6.5 6.5 0 0 0 .433 3.12 7.1 7.1 0 0 0 1.882 2.65l4.988 4.487q.133.12.306.185a1.03 1.03 0 0 0 .724 0 1 1 0 0 0 .307-.185l4.969-4.486a7.1 7.1 0 0 0 1.882-2.652 6.5 6.5 0 0 0 .433-3.12zm-3.633 4.537L8 14.96l-4.33-3.887a5.45 5.45 0 0 1-1.43-2.028 4.96 4.96 0 0 1-.33-2.382c.09-.82.379-1.61.85-2.316A5.9 5.9 0 0 1 4.63 2.58 6.6 6.6 0 0 1 8 1.667c1.199 0 2.37.318 3.37.913a5.9 5.9 0 0 1 1.867 1.759c.47.702.761 1.49.852 2.306a4.96 4.96 0 0 1-.325 2.391 5.44 5.44 0 0 1-1.435 2.036m-3.463-6.32a.5.5 0 0 0-.085-.144l-.113-.126a1 1 0 0 0-.399-.202 1.05 1.05 0 0 0-.457-.01h-.17l-.169.076-.141.11-.113.127a.5.5 0 0 0-.085.144.5.5 0 0 0-.056.16 1 1 0 0 0-.02.228.7.7 0 0 0 .076.33q.073.15.198.27.136.12.31.186c.23.079.485.079.716 0q.172-.07.31-.186.125-.12.198-.27a.8.8 0 0 0 .075-.33 1 1 0 0 0 0-.16.5.5 0 0 0-.075-.203"/></svg>