<svg width="9" height="10" viewBox="0 0 9 10" fill="none" xmlns="http://www.w3.org/2000/svg">
<path fill-rule="evenodd" clip-rule="evenodd" d="M8.5243 3.98405H0.514648V2.22505C0.514648 2.08574 0.642127 1.96378 0.787748 1.96378H1.44281V2.22505C1.44281 2.66035 1.8071 3.00886 2.2621 3.00886C2.71711 3.00886 3.0814 2.66035 3.0814 2.22505V1.96378H5.95754V2.22505C5.95754 2.66035 6.32184 3.00886 6.77684 3.00886C7.23185 3.00886 7.59566 2.66035 7.59566 2.22505V1.96378H8.2512C8.39682 1.96378 8.5243 2.08574 8.5243 2.22505V3.98405ZM8.5243 8.84312C8.5243 8.98243 8.39682 9.10439 8.2512 9.10439H0.787748C0.642127 9.10439 0.514648 8.98243 0.514648 8.84312V4.50659H8.5243V8.84312ZM1.989 1.17997C1.989 1.04066 2.11648 0.918701 2.2621 0.918701C2.40773 0.918701 2.5352 1.04066 2.5352 1.17997V2.22505C2.5352 2.36436 2.40773 2.48632 2.2621 2.48632C2.11648 2.48632 1.989 2.38172 1.989 2.22505V1.17997ZM6.50374 1.17997C6.50374 1.04066 6.63122 0.918701 6.77684 0.918701C6.92246 0.918701 7.04994 1.04066 7.04994 1.17997V2.22505C7.04994 2.36436 6.92246 2.48632 6.77684 2.48632C6.61308 2.48632 6.50374 2.38172 6.50374 2.22505V1.17997Z" fill="currentColor"/>
</svg>
