<svg xmlns="http://www.w3.org/2000/svg" width="16" height="17" fill="none" viewBox="0 0 16 17"><path fill="currentColor" d="M1.753 7.951.003 15.35c-.024.15.076.3.25.3h1.2l1.45-7.623c-.6 0-.95-.025-1.15-.075m1.675.075-.775 4.074h5.099V8.027zm9.948 4.074-.8-4.074H8.252v4.074zM2.553 12.6l-.575 3.049h12.098l-.6-3.05zm13.422 2.7-1.724-7.323c-.05.025-.1.025-.15.025h-1l1.5 7.623h1.15c.2.025.3-.175.224-.325M4.053 2.103h-.725a.243.243 0 0 0-.25.2l-.4 1.75h1c0-.025.4-2.075.375-1.95m3.699 1.801h-3.55l-.024.15h3.574zm3.699-1.8H4.553l-.25 1.3H11.7zM8.252 4.053h3.574l-.025-.15h-3.55zm5.074 0-.4-1.75a.243.243 0 0 0-.25-.2h-.725l.375 1.925h1z"/><path fill="currentColor" fill-rule="evenodd" d="M14.026 7.527c.15 0 .25-.1.25-.25v-.05l-.025-2.45a.27.27 0 0 0-.25-.25H2.003a.25.25 0 0 0-.25.25l-.025 2.475q0 .03-.003.054c-.003.028-.006.053.001.075.052.166.642.164 5.72.154 1.665-.004 3.812-.008 6.58-.008m-.25-.5h-.925v-.75h.925zm-.025-1.25v-.725h-.925v.725zm-1.4 1.25h-1.025v-.75h1.025zm-.025-1.25v-.725h-1.025v.725zm-1.5 1.25H9.802v-.75h1.024zm-.025-1.25v-.725H9.777v.725zm-2.55-.725h1.026v.725H8.252zm1.026 1.225H8.252v.75h1.025zm-2.55-1.225h1.025v.725H6.727zm1.025 1.225H6.727v.75h1.025zm-2.55-1.225h1.025v.725H5.203zm1.025 1.225H5.203v.75h1.024zM3.678 5.052h1.025v.725H3.678zm1.025 1.225H3.678v.75h1.025zm-2.45-1.225h.925v.725h-.925zm.925 1.225h-.925v.75h.925z" clip-rule="evenodd"/></svg>