<svg xmlns="http://www.w3.org/2000/svg" width="20" height="21" fill="none" viewBox="0 0 20 21"><path fill="currentColor" fill-rule="evenodd" d="M14.119 15.5a1.88 1.88 0 0 1-1.765 1.25 1.88 1.88 0 0 1-1.765-1.25H5.625a.625.625 0 1 1 0-1.25h4.964c.26-.726.95-1.25 1.765-1.25.817 0 1.506.524 1.765 1.25h.256a.625.625 0 1 1 0 1.25zm-2.62-.625a.854.854 0 0 0 1.71 0 .854.854 0 0 0-.854-.852.854.854 0 0 0-.856.852M14.119 8a1.88 1.88 0 0 1-1.765 1.25A1.88 1.88 0 0 1 10.59 8H5.625a.625.625 0 1 1 0-1.25h4.964c.26-.726.95-1.25 1.765-1.25.817 0 1.506.524 1.765 1.25h.256a.625.625 0 1 1 0 1.25zm-2.62-.625a.854.854 0 0 0 1.71 0 .854.854 0 0 0-.854-.852.854.854 0 0 0-.856.852M5.881 11.75c.26.726.948 1.25 1.765 1.25.815 0 1.505-.524 1.765-1.25h4.964a.625.625 0 1 0 0-1.25H9.411a1.88 1.88 0 0 0-1.765-1.25c-.817 0-1.506.524-1.765 1.25h-.256a.625.625 0 1 0 0 1.25zm2.62-.625a.854.854 0 0 1-1.71 0 .854.854 0 0 1 1.71 0" clip-rule="evenodd"/></svg>