<svg xmlns="http://www.w3.org/2000/svg" width="20" height="20" fill="none" viewBox="0 0 20 20"><path fill="currentColor" fill-rule="evenodd" d="M16.25 10.938c0 .132-.106.238-.238.265l-1.347.184a5.7 5.7 0 0 1-.396.926l.818 1.084a.25.25 0 0 1-.026.342l-1.322 1.322c-.079.106-.238.106-.344.027l-1.082-.82c-.292.186-.609.29-.926.397l-.185 1.347c-.026.133-.132.238-.264.238H9.062c-.132 0-.238-.105-.265-.238l-.184-1.347a5.7 5.7 0 0 1-.926-.396l-1.084.819a.247.247 0 0 1-.342-.027L4.939 13.74c-.106-.079-.106-.238-.027-.342l.82-1.084c-.186-.29-.29-.608-.397-.926l-1.347-.184c-.133-.027-.238-.133-.238-.265V9.062c0-.132.105-.238.238-.265l1.347-.184c.106-.317.238-.634.396-.926l-.819-1.082a.25.25 0 0 1 .027-.344L6.26 4.939c.079-.105.238-.105.342-.026l1.084.818c.29-.184.608-.29.926-.396l.184-1.347c.027-.132.133-.238.265-.238h1.876c.132 0 .238.106.264.238l.185 1.347c.317.106.634.238.926.396l1.082-.818a.25.25 0 0 1 .344.026l1.322 1.322c.105.079.105.238.026.344l-.818 1.082c.184.292.29.609.396.926l1.347.184c.132 0 .238.133.238.265zM10.04 7.37a2.623 2.623 0 0 0-2.618 2.617 2.62 2.62 0 0 0 2.617 2.616c1.427 0 2.617-1.189 2.617-2.616A2.606 2.606 0 0 0 10.04 7.37" clip-rule="evenodd"/></svg>